<svg xmlns="http://www.w3.org/2000/svg" viewBox="0 0 64 80" x="0px" y="0px"><g data-name="Layer 28"><path d="M55.05,9C35.87-8.85,9,16.78,25.85,36.73l-3,3a5.25,5.25,0,0,0-6.65.64L4.55,52C-.23,57.05,7,64.23,12,59.45L23.59,47.84a5.25,5.25,0,0,0,.64-6.65l3-3A20.16,20.16,0,0,0,55.05,9ZM22.18,46.43,10.57,58A3.26,3.26,0,0,1,6,53.43L17.57,41.82a3.26,3.26,0,0,1,4.61,4.61ZM53.64,36.06c-17.76,16.34-42-8-25.7-25.7A18.11,18.11,0,0,1,40.79,5.05C56.75,4.94,65.08,24.68,53.64,36.06Z"/><path d="M52.77,11.23a16.94,16.94,0,1,0,0,24A17,17,0,0,0,52.77,11.23ZM51.35,33.78C36.76,47.22,16.78,27.24,30.22,12.65A14.94,14.94,0,0,1,51.35,33.78Z"/><path d="M44.25,22.63a5,5,0,0,0-6.93,0l-3.66,3.46a3.78,3.78,0,0,0,2.68,6.49c1.56,0,2.82-.81,4.45-.8s3,.7,4.49.79a3.77,3.77,0,0,0,2.63-6.48ZM47,29.47a1.71,1.71,0,0,1-1.66,1.11,22.89,22.89,0,0,0-4.51-.8c-1.76,0-3,.7-4.49.81A1.78,1.78,0,0,1,35,27.54l3.66-3.46a3,3,0,0,1,4.18,0l3.66,3.46A1.71,1.71,0,0,1,47,29.47Z"/><path d="M52,19.12a2.38,2.38,0,0,0-4.13-.92,5.17,5.17,0,0,0-1.1,5c1.19,3.14,4.78,1.73,5.34-1.43A4.94,4.94,0,0,0,52,19.12Zm-1.85,2.2C49.93,22.49,49.25,23,49,23c-.93-.69-.34-3.38.81-3.62C50.34,19.67,50.34,20.64,50.19,21.32Z"/><path d="M44.06,20.91c4.23-.07,4.22-8.38,0-8.46C39.83,12.53,39.83,20.84,44.06,20.91Zm0-6.46c1.57.15,1.57,4.32,0,4.46C42.49,18.77,42.49,14.6,44.06,14.45Z"/><path d="M33,24.91c3.59-1,2-8.14-1.67-7.52C27.63,18.36,29.52,25.69,33,24.91Zm-1.6-3.59c-.14-.68-.15-1.65.37-2,1.14.24,1.73,2.93.8,3.62C32.34,23,31.64,22.49,31.38,21.32Z"/><path d="M37.52,20.91c4.22-.07,4.22-8.38,0-8.46C33.29,12.53,33.29,20.84,37.52,20.91Zm0-6.46c1.57.15,1.57,4.32,0,4.46C35.94,18.77,35.94,14.6,37.52,14.45Z"/></g><text x="0" y="79" fill="#000000" font-size="5px" font-weight="bold" font-family="'Helvetica Neue', Helvetica, Arial-Unicode, Arial, Sans-serif">Created by Colourcreatype</text><text x="0" y="84" fill="#000000" font-size="5px" font-weight="bold" font-family="'Helvetica Neue', Helvetica, Arial-Unicode, Arial, Sans-serif">from the Noun Project</text></svg>